<?xml version="1.0" encoding="UTF-8"?>
<svg xmlns="http://www.w3.org/2000/svg" viewBox="0 0 64 64" width="64" height="64" role="img" aria-label="FutureHacks favicon">
  <rect width="100%" height="100%" rx="12" fill="#0f172a" />
  <g fill="#fff" transform="translate(8,8)">
    <circle cx="24" cy="24" r="18" fill="#7c3aed" />
    <text x="24" y="30" text-anchor="middle" font-family="Arial, Helvetica, sans-serif" font-size="20" font-weight="700" fill="#fff">FH</text>
  </g>
</svg>
<?xml version="1.0" encoding="UTF-8"?>
<svg data-bbox="0.923 0.908 136.15 136.148" viewBox="0 0 136 136" xmlns="http://www.w3.org/2000/svg" data-type="color">
    <g>
        <path d="M82 137c-26.31 0-52.12-.03-77.929.05-2.318.007-3.155-.292-3.148-2.973q.162-65.19 0-130.38C.917 1.203 1.583.941 3.798.945c43.46.074 86.92.097 130.38-.037 2.937-.01 2.85 1.186 2.848 3.265-.035 43.293-.056 86.587.047 129.88.006 2.622-.744 3.018-3.12 3.003C116.801 136.951 99.65 137 82 137" fill="#000000" data-color="1"/>
        <path d="M29.09 98.784c-3.008-1.743-4.137-3.905-4.097-7.157.158-12.816.126-25.636-.014-38.453-.03-2.68.989-4.223 3.084-5.72 13-9.286 25.967-18.62 38.807-28.123 3.003-2.222 5.274-2.468 8.38-.161 13.088 9.725 26.312 19.27 39.553 28.787 1.73 1.244 2.205 2.661 2.197 4.634-.06 13.317-.1 26.635-.02 39.952.016 2.6-.871 4.374-2.952 5.886-13.33 9.682-26.638 19.394-39.874 29.202-2.305 1.707-4.007 1.476-6.206-.164-12.806-9.552-25.698-18.988-38.858-28.683" fill="#55B22A" data-color="2"/>
        <path d="M80.437 71.44c-9.238 6.786-9.236 6.782-18.386.227-8.515-6.1-16.964-12.298-25.598-18.226-2.905-1.995-2.565-3.01.053-4.868a2008 2008 0 0 0 31.52-22.84c2.187-1.616 3.755-1.898 6.092-.146a1560 1560 0 0 0 31.426 22.97c2.852 2.028 2.504 3.041-.13 4.882-8.314 5.809-16.472 11.84-24.977 18.002" fill="#010200" data-color="3"/>
        <path d="M99.384 65.364c3.759-2.694 7.232-5.17 11.597-8.282 0 12.249-.001 23.473.002 34.698 0 1.07-.394 1.885-1.284 2.534-11.515 8.4-23.018 16.82-35.602 26.022 0-9.431.622-17.704-.175-25.838-.798-8.145 1.903-13.334 8.942-17.342 5.745-3.272 10.847-7.674 16.52-11.792" fill="#010200" data-color="3"/>
        <path d="M63.834 117.076c-10.082-7.403-19.83-14.67-29.702-21.767-2.255-1.62-3.249-3.326-3.202-6.169.168-10.257.066-20.518.066-31.89 4.374 3.038 7.877 5.42 11.327 7.879 7.593 5.408 15.099 10.942 22.773 16.23 2.172 1.497 3.026 3.077 2.984 5.712-.152 9.494-.044 18.992-.08 28.488-.005 1.112.077 2.839-.533 3.209-1.346.817-2.208-.946-3.633-1.692" fill="#000100" data-color="4"/>
    </g>
</svg>
